<mxfile host="Electron" modified="2024-05-20T21:35:54.012Z" agent="Mozilla/5.0 (Macintosh; Intel Mac OS X 10_15_7) AppleWebKit/537.36 (KHTML, like Gecko) draw.io/24.4.0 Chrome/120.0.6099.109 Electron/28.1.0 Safari/537.36" etag="Cr_PEiPtj0tendwQ_rZy" version="24.4.0" type="device">
  <diagram name="Page-1" id="ZNFxOjxP5cYbFs4iC51F">
    <mxGraphModel dx="1434" dy="854" grid="1" gridSize="10" guides="1" tooltips="1" connect="1" arrows="1" fold="1" page="1" pageScale="1" pageWidth="850" pageHeight="1100" math="0" shadow="0">
      <root>
        <mxCell id="0" />
        <mxCell id="1" parent="0" />
        <mxCell id="Bwr7v-AEFsfxMpoZ5kJj-4" value="" style="whiteSpace=wrap;html=1;aspect=fixed;fillColor=#B3B3B3;strokeColor=#666666;gradientColor=#b3b3b3;fontSize=24;" vertex="1" parent="1">
          <mxGeometry x="800" y="100" width="40" height="40" as="geometry" />
        </mxCell>
        <mxCell id="Bwr7v-AEFsfxMpoZ5kJj-5" value="" style="whiteSpace=wrap;html=1;aspect=fixed;fillColor=#B3B3B3;strokeColor=#666666;gradientColor=#b3b3b3;fontSize=24;" vertex="1" parent="1">
          <mxGeometry x="800" y="140" width="40" height="40" as="geometry" />
        </mxCell>
        <mxCell id="Bwr7v-AEFsfxMpoZ5kJj-6" value="" style="whiteSpace=wrap;html=1;aspect=fixed;fillColor=#B3B3B3;strokeColor=#666666;gradientColor=#b3b3b3;fontSize=24;" vertex="1" parent="1">
          <mxGeometry x="800" y="180" width="40" height="40" as="geometry" />
        </mxCell>
        <mxCell id="Bwr7v-AEFsfxMpoZ5kJj-7" value="e" style="whiteSpace=wrap;html=1;aspect=fixed;fontSize=24;" vertex="1" parent="1">
          <mxGeometry x="800" y="220" width="40" height="40" as="geometry" />
        </mxCell>
        <mxCell id="Bwr7v-AEFsfxMpoZ5kJj-8" value="d" style="whiteSpace=wrap;html=1;aspect=fixed;fontSize=24;" vertex="1" parent="1">
          <mxGeometry x="800" y="260" width="40" height="40" as="geometry" />
        </mxCell>
        <mxCell id="Bwr7v-AEFsfxMpoZ5kJj-9" value="c" style="whiteSpace=wrap;html=1;aspect=fixed;fontSize=24;" vertex="1" parent="1">
          <mxGeometry x="800" y="300" width="40" height="40" as="geometry" />
        </mxCell>
        <mxCell id="Bwr7v-AEFsfxMpoZ5kJj-10" value="b" style="whiteSpace=wrap;html=1;aspect=fixed;fontSize=24;" vertex="1" parent="1">
          <mxGeometry x="800" y="340" width="40" height="40" as="geometry" />
        </mxCell>
        <mxCell id="Bwr7v-AEFsfxMpoZ5kJj-11" value="a" style="whiteSpace=wrap;html=1;aspect=fixed;fontSize=24;" vertex="1" parent="1">
          <mxGeometry x="800" y="380" width="40" height="40" as="geometry" />
        </mxCell>
        <mxCell id="Bwr7v-AEFsfxMpoZ5kJj-12" value="7" style="whiteSpace=wrap;html=1;aspect=fixed;fillColor=none;strokeColor=none;gradientColor=#b3b3b3;align=right;fontSize=24;" vertex="1" parent="1">
          <mxGeometry x="760" y="100" width="40" height="40" as="geometry" />
        </mxCell>
        <mxCell id="Bwr7v-AEFsfxMpoZ5kJj-13" value="6" style="whiteSpace=wrap;html=1;aspect=fixed;fillColor=none;strokeColor=none;gradientColor=#b3b3b3;align=right;fontSize=24;" vertex="1" parent="1">
          <mxGeometry x="760" y="140" width="40" height="40" as="geometry" />
        </mxCell>
        <mxCell id="Bwr7v-AEFsfxMpoZ5kJj-14" value="5" style="whiteSpace=wrap;html=1;aspect=fixed;fillColor=none;strokeColor=none;gradientColor=#b3b3b3;align=right;fontSize=24;" vertex="1" parent="1">
          <mxGeometry x="760" y="180" width="40" height="40" as="geometry" />
        </mxCell>
        <mxCell id="Bwr7v-AEFsfxMpoZ5kJj-15" value="4" style="whiteSpace=wrap;html=1;aspect=fixed;fillColor=none;strokeColor=none;align=right;fontSize=24;" vertex="1" parent="1">
          <mxGeometry x="760" y="220" width="40" height="40" as="geometry" />
        </mxCell>
        <mxCell id="Bwr7v-AEFsfxMpoZ5kJj-16" value="3" style="whiteSpace=wrap;html=1;aspect=fixed;fillColor=none;strokeColor=none;align=right;fontSize=24;" vertex="1" parent="1">
          <mxGeometry x="760" y="260" width="40" height="40" as="geometry" />
        </mxCell>
        <mxCell id="Bwr7v-AEFsfxMpoZ5kJj-17" value="2" style="whiteSpace=wrap;html=1;aspect=fixed;fillColor=none;strokeColor=none;align=right;fontSize=24;" vertex="1" parent="1">
          <mxGeometry x="760" y="300" width="40" height="40" as="geometry" />
        </mxCell>
        <mxCell id="Bwr7v-AEFsfxMpoZ5kJj-18" value="1" style="whiteSpace=wrap;html=1;aspect=fixed;fillColor=none;strokeColor=none;align=right;fontSize=24;" vertex="1" parent="1">
          <mxGeometry x="760" y="340" width="40" height="40" as="geometry" />
        </mxCell>
        <mxCell id="Bwr7v-AEFsfxMpoZ5kJj-19" value="0" style="whiteSpace=wrap;html=1;aspect=fixed;fillColor=none;strokeColor=none;align=right;fontSize=24;" vertex="1" parent="1">
          <mxGeometry x="760" y="380" width="40" height="40" as="geometry" />
        </mxCell>
        <mxCell id="Bwr7v-AEFsfxMpoZ5kJj-20" value="&lt;font face=&quot;Courier New&quot;&gt;_data&lt;/font&gt;" style="whiteSpace=wrap;html=1;fontSize=24;align=left;fillColor=none;" vertex="1" parent="1">
          <mxGeometry x="560" y="20" width="120" height="40" as="geometry" />
        </mxCell>
        <mxCell id="Bwr7v-AEFsfxMpoZ5kJj-23" value="5" style="whiteSpace=wrap;html=1;fontSize=24;align=center;fillColor=none;strokeColor=none;" vertex="1" parent="1">
          <mxGeometry x="640" y="60" width="40" height="40" as="geometry" />
        </mxCell>
        <mxCell id="Bwr7v-AEFsfxMpoZ5kJj-22" value="&lt;font face=&quot;Courier New&quot;&gt;_size&lt;/font&gt;" style="whiteSpace=wrap;html=1;fontSize=24;align=left;fillColor=none;" vertex="1" parent="1">
          <mxGeometry x="560" y="60" width="120" height="40" as="geometry" />
        </mxCell>
        <mxCell id="Bwr7v-AEFsfxMpoZ5kJj-29" value="" style="endArrow=classic;html=1;rounded=0;entryX=0.5;entryY=0;entryDx=0;entryDy=0;exitX=0.833;exitY=0.5;exitDx=0;exitDy=0;exitPerimeter=0;" edge="1" parent="1" source="Bwr7v-AEFsfxMpoZ5kJj-20" target="Bwr7v-AEFsfxMpoZ5kJj-4">
          <mxGeometry width="50" height="50" relative="1" as="geometry">
            <mxPoint x="710" y="60" as="sourcePoint" />
            <mxPoint x="770" y="270" as="targetPoint" />
            <Array as="points">
              <mxPoint x="820" y="40" />
            </Array>
          </mxGeometry>
        </mxCell>
        <mxCell id="Bwr7v-AEFsfxMpoZ5kJj-34" value="d" style="whiteSpace=wrap;html=1;aspect=fixed;fontSize=24;" vertex="1" parent="1">
          <mxGeometry x="280" y="640" width="40" height="40" as="geometry" />
        </mxCell>
        <mxCell id="Bwr7v-AEFsfxMpoZ5kJj-35" value="c" style="whiteSpace=wrap;html=1;aspect=fixed;fontSize=24;" vertex="1" parent="1">
          <mxGeometry x="280" y="680" width="40" height="40" as="geometry" />
        </mxCell>
        <mxCell id="Bwr7v-AEFsfxMpoZ5kJj-36" value="b" style="whiteSpace=wrap;html=1;aspect=fixed;fontSize=24;" vertex="1" parent="1">
          <mxGeometry x="280" y="720" width="40" height="40" as="geometry" />
        </mxCell>
        <mxCell id="Bwr7v-AEFsfxMpoZ5kJj-37" value="a" style="whiteSpace=wrap;html=1;aspect=fixed;fontSize=24;" vertex="1" parent="1">
          <mxGeometry x="280" y="760" width="40" height="40" as="geometry" />
        </mxCell>
        <mxCell id="Bwr7v-AEFsfxMpoZ5kJj-42" value="3" style="whiteSpace=wrap;html=1;aspect=fixed;fillColor=none;strokeColor=none;align=right;fontSize=24;" vertex="1" parent="1">
          <mxGeometry x="240" y="640" width="40" height="40" as="geometry" />
        </mxCell>
        <mxCell id="Bwr7v-AEFsfxMpoZ5kJj-43" value="2" style="whiteSpace=wrap;html=1;aspect=fixed;fillColor=none;strokeColor=none;align=right;fontSize=24;" vertex="1" parent="1">
          <mxGeometry x="240" y="680" width="40" height="40" as="geometry" />
        </mxCell>
        <mxCell id="Bwr7v-AEFsfxMpoZ5kJj-44" value="1" style="whiteSpace=wrap;html=1;aspect=fixed;fillColor=none;strokeColor=none;align=right;fontSize=24;" vertex="1" parent="1">
          <mxGeometry x="240" y="720" width="40" height="40" as="geometry" />
        </mxCell>
        <mxCell id="Bwr7v-AEFsfxMpoZ5kJj-45" value="0" style="whiteSpace=wrap;html=1;aspect=fixed;fillColor=none;strokeColor=none;align=right;fontSize=24;" vertex="1" parent="1">
          <mxGeometry x="240" y="760" width="40" height="40" as="geometry" />
        </mxCell>
        <mxCell id="Bwr7v-AEFsfxMpoZ5kJj-46" value="&lt;font face=&quot;Courier New&quot;&gt;_data&lt;/font&gt;" style="whiteSpace=wrap;html=1;fontSize=24;align=left;fillColor=none;" vertex="1" parent="1">
          <mxGeometry x="40" y="560" width="120" height="40" as="geometry" />
        </mxCell>
        <mxCell id="Bwr7v-AEFsfxMpoZ5kJj-48" value="&lt;font face=&quot;Courier New&quot;&gt;_size&lt;/font&gt;" style="whiteSpace=wrap;html=1;fontSize=24;align=left;fillColor=none;" vertex="1" parent="1">
          <mxGeometry x="40" y="600" width="120" height="40" as="geometry" />
        </mxCell>
        <mxCell id="Bwr7v-AEFsfxMpoZ5kJj-47" value="4" style="whiteSpace=wrap;html=1;fontSize=24;align=center;fillColor=none;strokeColor=none;" vertex="1" parent="1">
          <mxGeometry x="120" y="600" width="40" height="40" as="geometry" />
        </mxCell>
        <mxCell id="Bwr7v-AEFsfxMpoZ5kJj-49" value="" style="endArrow=classic;html=1;rounded=0;exitX=0.833;exitY=0.5;exitDx=0;exitDy=0;exitPerimeter=0;entryX=0.5;entryY=0;entryDx=0;entryDy=0;" edge="1" source="Bwr7v-AEFsfxMpoZ5kJj-46" target="Bwr7v-AEFsfxMpoZ5kJj-34" parent="1">
          <mxGeometry width="50" height="50" relative="1" as="geometry">
            <mxPoint x="190" y="600" as="sourcePoint" />
            <mxPoint x="350" y="610" as="targetPoint" />
            <Array as="points">
              <mxPoint x="300" y="580" />
            </Array>
          </mxGeometry>
        </mxCell>
        <mxCell id="Bwr7v-AEFsfxMpoZ5kJj-50" value="" style="whiteSpace=wrap;html=1;aspect=fixed;fillColor=#B3B3B3;strokeColor=#666666;gradientColor=#b3b3b3;fontSize=24;" vertex="1" parent="1">
          <mxGeometry x="720" y="640" width="40" height="40" as="geometry" />
        </mxCell>
        <mxCell id="Bwr7v-AEFsfxMpoZ5kJj-51" value="" style="whiteSpace=wrap;html=1;aspect=fixed;fillColor=#B3B3B3;strokeColor=#666666;gradientColor=#b3b3b3;fontSize=24;" vertex="1" parent="1">
          <mxGeometry x="720" y="680" width="40" height="40" as="geometry" />
        </mxCell>
        <mxCell id="Bwr7v-AEFsfxMpoZ5kJj-52" value="" style="whiteSpace=wrap;html=1;aspect=fixed;fillColor=#B3B3B3;strokeColor=#666666;gradientColor=#b3b3b3;fontSize=24;" vertex="1" parent="1">
          <mxGeometry x="720" y="720" width="40" height="40" as="geometry" />
        </mxCell>
        <mxCell id="Bwr7v-AEFsfxMpoZ5kJj-53" value="e" style="whiteSpace=wrap;html=1;aspect=fixed;fontSize=24;" vertex="1" parent="1">
          <mxGeometry x="720" y="760" width="40" height="40" as="geometry" />
        </mxCell>
        <mxCell id="Bwr7v-AEFsfxMpoZ5kJj-54" value="d" style="whiteSpace=wrap;html=1;aspect=fixed;fontSize=24;" vertex="1" parent="1">
          <mxGeometry x="720" y="800" width="40" height="40" as="geometry" />
        </mxCell>
        <mxCell id="Bwr7v-AEFsfxMpoZ5kJj-55" value="c" style="whiteSpace=wrap;html=1;aspect=fixed;fontSize=24;" vertex="1" parent="1">
          <mxGeometry x="720" y="840" width="40" height="40" as="geometry" />
        </mxCell>
        <mxCell id="Bwr7v-AEFsfxMpoZ5kJj-56" value="b" style="whiteSpace=wrap;html=1;aspect=fixed;fontSize=24;" vertex="1" parent="1">
          <mxGeometry x="720" y="880" width="40" height="40" as="geometry" />
        </mxCell>
        <mxCell id="Bwr7v-AEFsfxMpoZ5kJj-57" value="a" style="whiteSpace=wrap;html=1;aspect=fixed;fontSize=24;" vertex="1" parent="1">
          <mxGeometry x="720" y="920" width="40" height="40" as="geometry" />
        </mxCell>
        <mxCell id="Bwr7v-AEFsfxMpoZ5kJj-58" value="7" style="whiteSpace=wrap;html=1;aspect=fixed;fillColor=none;strokeColor=none;gradientColor=#b3b3b3;align=right;fontSize=24;" vertex="1" parent="1">
          <mxGeometry x="680" y="640" width="40" height="40" as="geometry" />
        </mxCell>
        <mxCell id="Bwr7v-AEFsfxMpoZ5kJj-59" value="6" style="whiteSpace=wrap;html=1;aspect=fixed;fillColor=none;strokeColor=none;gradientColor=#b3b3b3;align=right;fontSize=24;" vertex="1" parent="1">
          <mxGeometry x="680" y="680" width="40" height="40" as="geometry" />
        </mxCell>
        <mxCell id="Bwr7v-AEFsfxMpoZ5kJj-60" value="5" style="whiteSpace=wrap;html=1;aspect=fixed;fillColor=none;strokeColor=none;gradientColor=#b3b3b3;align=right;fontSize=24;" vertex="1" parent="1">
          <mxGeometry x="680" y="720" width="40" height="40" as="geometry" />
        </mxCell>
        <mxCell id="Bwr7v-AEFsfxMpoZ5kJj-61" value="4" style="whiteSpace=wrap;html=1;aspect=fixed;fillColor=none;strokeColor=none;align=right;fontSize=24;" vertex="1" parent="1">
          <mxGeometry x="680" y="760" width="40" height="40" as="geometry" />
        </mxCell>
        <mxCell id="Bwr7v-AEFsfxMpoZ5kJj-62" value="3" style="whiteSpace=wrap;html=1;aspect=fixed;fillColor=none;strokeColor=none;align=right;fontSize=24;" vertex="1" parent="1">
          <mxGeometry x="680" y="800" width="40" height="40" as="geometry" />
        </mxCell>
        <mxCell id="Bwr7v-AEFsfxMpoZ5kJj-63" value="2" style="whiteSpace=wrap;html=1;aspect=fixed;fillColor=none;strokeColor=none;align=right;fontSize=24;" vertex="1" parent="1">
          <mxGeometry x="680" y="840" width="40" height="40" as="geometry" />
        </mxCell>
        <mxCell id="Bwr7v-AEFsfxMpoZ5kJj-64" value="1" style="whiteSpace=wrap;html=1;aspect=fixed;fillColor=none;strokeColor=none;align=right;fontSize=24;" vertex="1" parent="1">
          <mxGeometry x="680" y="880" width="40" height="40" as="geometry" />
        </mxCell>
        <mxCell id="Bwr7v-AEFsfxMpoZ5kJj-65" value="0" style="whiteSpace=wrap;html=1;aspect=fixed;fillColor=none;strokeColor=none;align=right;fontSize=24;" vertex="1" parent="1">
          <mxGeometry x="680" y="920" width="40" height="40" as="geometry" />
        </mxCell>
        <mxCell id="Bwr7v-AEFsfxMpoZ5kJj-66" value="&lt;font face=&quot;Courier New&quot;&gt;_data&lt;/font&gt;" style="whiteSpace=wrap;html=1;fontSize=24;align=left;fillColor=none;" vertex="1" parent="1">
          <mxGeometry x="480" y="560" width="120" height="40" as="geometry" />
        </mxCell>
        <mxCell id="Bwr7v-AEFsfxMpoZ5kJj-67" value="5" style="whiteSpace=wrap;html=1;fontSize=24;align=center;fillColor=none;strokeColor=none;" vertex="1" parent="1">
          <mxGeometry x="560" y="600" width="40" height="40" as="geometry" />
        </mxCell>
        <mxCell id="Bwr7v-AEFsfxMpoZ5kJj-68" value="&lt;font face=&quot;Courier New&quot;&gt;_size&lt;/font&gt;" style="whiteSpace=wrap;html=1;fontSize=24;align=left;fillColor=none;" vertex="1" parent="1">
          <mxGeometry x="480" y="600" width="120" height="40" as="geometry" />
        </mxCell>
        <mxCell id="Bwr7v-AEFsfxMpoZ5kJj-69" value="" style="endArrow=classic;html=1;rounded=0;entryX=0.5;entryY=0;entryDx=0;entryDy=0;exitX=0.833;exitY=0.5;exitDx=0;exitDy=0;exitPerimeter=0;" edge="1" source="Bwr7v-AEFsfxMpoZ5kJj-66" target="Bwr7v-AEFsfxMpoZ5kJj-50" parent="1">
          <mxGeometry width="50" height="50" relative="1" as="geometry">
            <mxPoint x="630" y="600" as="sourcePoint" />
            <mxPoint x="690" y="810" as="targetPoint" />
            <Array as="points">
              <mxPoint x="740" y="580" />
            </Array>
          </mxGeometry>
        </mxCell>
        <mxCell id="Bwr7v-AEFsfxMpoZ5kJj-70" value="d" style="whiteSpace=wrap;html=1;aspect=fixed;fontSize=24;strokeColor=#B3B3B3;fontColor=#B3B3B3;" vertex="1" parent="1">
          <mxGeometry x="640" y="640" width="40" height="40" as="geometry" />
        </mxCell>
        <mxCell id="Bwr7v-AEFsfxMpoZ5kJj-71" value="c" style="whiteSpace=wrap;html=1;aspect=fixed;fontSize=24;strokeColor=#B3B3B3;fontColor=#B3B3B3;" vertex="1" parent="1">
          <mxGeometry x="640" y="680" width="40" height="40" as="geometry" />
        </mxCell>
        <mxCell id="Bwr7v-AEFsfxMpoZ5kJj-72" value="b" style="whiteSpace=wrap;html=1;aspect=fixed;fontSize=24;strokeColor=#B3B3B3;fontColor=#B3B3B3;" vertex="1" parent="1">
          <mxGeometry x="640" y="720" width="40" height="40" as="geometry" />
        </mxCell>
        <mxCell id="Bwr7v-AEFsfxMpoZ5kJj-73" value="a" style="whiteSpace=wrap;html=1;aspect=fixed;fontSize=24;strokeColor=#B3B3B3;fontColor=#B3B3B3;" vertex="1" parent="1">
          <mxGeometry x="640" y="760" width="40" height="40" as="geometry" />
        </mxCell>
        <mxCell id="Bwr7v-AEFsfxMpoZ5kJj-74" value="3" style="whiteSpace=wrap;html=1;aspect=fixed;fillColor=none;strokeColor=none;align=right;fontSize=24;fontColor=#B3B3B3;" vertex="1" parent="1">
          <mxGeometry x="600" y="640" width="40" height="40" as="geometry" />
        </mxCell>
        <mxCell id="Bwr7v-AEFsfxMpoZ5kJj-75" value="2" style="whiteSpace=wrap;html=1;aspect=fixed;fillColor=none;strokeColor=none;align=right;fontSize=24;fontColor=#B3B3B3;" vertex="1" parent="1">
          <mxGeometry x="600" y="680" width="40" height="40" as="geometry" />
        </mxCell>
        <mxCell id="Bwr7v-AEFsfxMpoZ5kJj-76" value="1" style="whiteSpace=wrap;html=1;aspect=fixed;fillColor=none;strokeColor=none;align=right;fontSize=24;fontColor=#B3B3B3;" vertex="1" parent="1">
          <mxGeometry x="600" y="720" width="40" height="40" as="geometry" />
        </mxCell>
        <mxCell id="Bwr7v-AEFsfxMpoZ5kJj-77" value="0" style="whiteSpace=wrap;html=1;aspect=fixed;fillColor=none;strokeColor=none;align=right;fontSize=24;fontColor=#B3B3B3;" vertex="1" parent="1">
          <mxGeometry x="600" y="760" width="40" height="40" as="geometry" />
        </mxCell>
        <mxCell id="Bwr7v-AEFsfxMpoZ5kJj-78" value="before pushing" style="whiteSpace=wrap;html=1;fontSize=24;strokeColor=none;" vertex="1" parent="1">
          <mxGeometry x="40" y="500" width="280" height="40" as="geometry" />
        </mxCell>
        <mxCell id="Bwr7v-AEFsfxMpoZ5kJj-79" value="after pushing" style="whiteSpace=wrap;html=1;fontSize=24;strokeColor=none;" vertex="1" parent="1">
          <mxGeometry x="480" y="500" width="280" height="40" as="geometry" />
        </mxCell>
      </root>
    </mxGraphModel>
  </diagram>
</mxfile>
